<svg width="22" height="22" viewBox="0 0 22 22" fill="inherit" xmlns="http://www.w3.org/2000/svg">
    <g clip-path="url(#clip0_123_2567)">
        <path d="M10.9998 20.1666C12.0082 20.1666 12.8332 19.3416 12.8332 18.3333H9.1665C9.1665 19.3416 9.9915 20.1666 10.9998 20.1666ZM16.4998 14.6666V10.0833C16.4998 7.26913 15.0057 4.91329 12.3748 4.28996V3.66663C12.3748 2.90579 11.7607 2.29163 10.9998 2.29163C10.239 2.29163 9.62484 2.90579 9.62484 3.66663V4.28996C7.00317 4.91329 5.49984 7.25996 5.49984 10.0833V14.6666L3.6665 16.5V17.4166H18.3332V16.5L16.4998 14.6666ZM14.6665 15.5833H7.33317V10.0833C7.33317 7.80996 8.71734 5.95829 10.9998 5.95829C13.2823 5.95829 14.6665 7.80996 14.6665 10.0833V15.5833Z" fill="inherit"/>
    </g>
    <defs>
        <clipPath id="clip0_123_2567">
            <rect width="22" height="22" fill="white"/>
        </clipPath>
    </defs>
</svg>