<svg width="22" height="22" viewBox="0 0 22 22" fill="inherit" xmlns="http://www.w3.org/2000/svg">
    <g clip-path="url(#clip0_123_2564)">
        <path fill-rule="evenodd" clip-rule="evenodd" d="M12.8335 5.50004V3.66671H9.16683V5.50004H12.8335ZM3.66683 7.33337V17.4167H18.3335V7.33337H3.66683ZM18.3335 5.50004C19.351 5.50004 20.1668 6.31587 20.1668 7.33337V17.4167C20.1668 18.4342 19.351 19.25 18.3335 19.25H3.66683C2.64933 19.25 1.8335 18.4342 1.8335 17.4167L1.84266 7.33337C1.84266 6.31587 2.64933 5.50004 3.66683 5.50004H7.3335V3.66671C7.3335 2.64921 8.14933 1.83337 9.16683 1.83337H12.8335C13.851 1.83337 14.6668 2.64921 14.6668 3.66671V5.50004H18.3335Z" fill="inherit"/>
    </g>
    <defs>
        <clipPath id="clip0_123_2564">
            <rect width="22" height="22" fill="white"/>
        </clipPath>
    </defs>
</svg>
