<svg width="22" height="22" viewBox="0 0 22 22" fill="inherit" xmlns="http://www.w3.org/2000/svg">
<g clip-path="url(#clip0_2616_1065)">
    <path d="M17.4167 4.58333V17.4167H4.58333V4.58333H17.4167ZM18.425 2.75H3.575C3.11667 2.75 2.75 3.11667 2.75 3.575V18.425C2.75 18.7917 3.11667 19.25 3.575 19.25H18.425C18.7917 19.25 19.25 18.7917 19.25 18.425V3.575C19.25 3.11667 18.7917 2.75 18.425 2.75V2.75ZM10.0833 6.41667H15.5833V8.25H10.0833V6.41667ZM10.0833 10.0833H15.5833V11.9167H10.0833V10.0833ZM10.0833 13.75H15.5833V15.5833H10.0833V13.75ZM6.41667 6.41667H8.25V8.25H6.41667V6.41667ZM6.41667 10.0833H8.25V11.9167H6.41667V10.0833ZM6.41667 13.75H8.25V15.5833H6.41667V13.75Z" fill="inherit"/>
</g>
<defs>
    <clipPath id="clip0_2616_1065">
        <rect width="22" height="22" fill="white"/>
    </clipPath>
</defs>
</svg>
