<svg width="323" height="40" viewBox="0 0 323 40" fill="none" xmlns="http://www.w3.org/2000/svg">
    <path d="M0 36H26V40H0V36Z" fill="#EF3124"/>
    <path d="M115.269 8.6001C117.936 8.6001 119.909 9.17343 121.189 10.3201C122.468 11.4668 123.108 13.2934 123.108 15.8001V30.4001H120.495L119.801 27.3601H119.637C119.011 28.1334 118.358 28.7868 117.677 29.3201C117.024 29.8268 116.262 30.2001 115.391 30.4401C114.547 30.6801 113.513 30.8001 112.288 30.8001C110.981 30.8001 109.797 30.5734 108.736 30.1201C107.701 29.6668 106.885 28.9734 106.286 28.0401C105.687 27.0801 105.388 25.8801 105.388 24.4401C105.388 22.3068 106.245 20.6668 107.96 19.5201C109.675 18.3468 112.315 17.7068 115.881 17.6001L119.596 17.4801V16.2001C119.596 14.4134 119.202 13.1734 118.412 12.4801C117.623 11.7868 116.507 11.4401 115.064 11.4401C113.921 11.4401 112.832 11.6134 111.798 11.9601C110.764 12.2801 109.797 12.6534 108.899 13.0801L107.797 10.4401C108.749 9.93343 109.879 9.50676 111.186 9.1601C112.492 8.78676 113.853 8.6001 115.269 8.6001ZM116.33 20.0401C113.608 20.1468 111.716 20.5734 110.655 21.3201C109.62 22.0668 109.103 23.1201 109.103 24.4801C109.103 25.6801 109.471 26.5601 110.206 27.1201C110.968 27.6801 111.934 27.9601 113.105 27.9601C114.955 27.9601 116.493 27.4668 117.718 26.4801C118.943 25.4668 119.556 23.9201 119.556 21.8401V19.9201L116.33 20.0401Z" fill="#EF3124"/>
    <path d="M90.4601 8.64C92.6377 8.82667 94.5295 9.38667 96.1355 10.32C97.7687 11.2533 99.0344 12.5067 99.9326 14.08C100.831 15.6533 101.28 17.52 101.28 19.68C101.28 21.84 100.845 23.72 99.9735 25.32C99.1024 26.8933 97.8639 28.1467 96.258 29.08C94.652 29.9867 92.7194 30.5333 90.4601 30.72V40H86.9488V30.72C84.7984 30.5333 82.9066 29.9867 81.2734 29.08C79.6403 28.1467 78.3745 26.8933 77.4763 25.32C76.578 23.72 76.1289 21.84 76.1289 19.68C76.1289 17.4933 76.5644 15.6133 77.4355 14.04C78.3065 12.44 79.5586 11.1867 81.1918 10.28C82.825 9.34667 84.7848 8.8 87.0713 8.64V0H90.4601V8.64ZM87.0713 11.56C85.4109 11.72 84.0499 12.1333 82.9883 12.8C81.9267 13.4667 81.1373 14.3733 80.6202 15.52C80.1302 16.6667 79.8852 18.0533 79.8852 19.68C79.8852 21.28 80.1302 22.6667 80.6202 23.84C81.1373 24.9867 81.9267 25.9067 82.9883 26.6C84.0499 27.2667 85.4109 27.68 87.0713 27.84V11.56ZM90.4601 27.84C92.0933 27.6533 93.4271 27.2267 94.4615 26.56C95.523 25.8933 96.2988 24.9867 96.7888 23.84C97.3059 22.6667 97.5645 21.28 97.5645 19.68C97.5645 18.08 97.3059 16.7067 96.7888 15.56C96.2716 14.4133 95.4822 13.5067 94.4206 12.84C93.3863 12.1733 92.0661 11.76 90.4601 11.6V27.84Z" fill="#EF3124"/>
    <path d="M63.2373 17.76C65.1427 17.76 66.7214 17.9866 67.9735 18.44C69.2256 18.8933 70.1647 19.5733 70.7908 20.48C71.4441 21.36 71.7707 22.48 71.7707 23.84C71.7707 25.1733 71.4577 26.3333 70.8316 27.32C70.2328 28.3066 69.2937 29.0666 68.0144 29.6C66.735 30.1333 65.0882 30.4 63.074 30.4H53.1523V8.95996H56.7454V17.76H63.2373ZM68.1777 24.04C68.1777 22.7333 67.7013 21.8533 66.7486 21.4C65.8232 20.92 64.5166 20.68 62.829 20.68H56.7454V27.56H62.9107C64.435 27.56 65.6871 27.2933 66.667 26.76C67.6741 26.2266 68.1777 25.32 68.1777 24.04Z" fill="#EF3124"/>
    <path d="M46.2056 30.4H42.5717V11.88H36.1206C35.8484 15.2666 35.5082 18.16 35.0999 20.56C34.6916 22.9333 34.1744 24.8666 33.5483 26.36C32.9223 27.8533 32.1737 28.9466 31.3027 29.64C30.4317 30.3333 29.4109 30.68 28.2405 30.68C27.8866 30.68 27.5328 30.6533 27.1789 30.6C26.8523 30.5733 26.5801 30.5066 26.3623 30.4V27.76C26.5256 27.8133 26.7026 27.8533 26.8931 27.88C27.0836 27.9066 27.2742 27.92 27.4647 27.92C28.0635 27.92 28.6079 27.68 29.0979 27.2C29.5879 26.72 30.0234 25.9866 30.4044 25C30.8127 24.0133 31.1802 22.7733 31.5069 21.28C31.8335 19.76 32.1193 17.9733 32.3643 15.92C32.6093 13.8666 32.827 11.5466 33.0176 8.95996H46.2056V30.4Z" fill="#EF3124"/>
    <path d="M22.2522 30.4002L18.7409 21.5602H7.18604L3.71551 30.4002H0L11.3915 1.72021H14.6987L26.0494 30.4002H22.2522ZM14.3721 9.72021C14.2904 9.50688 14.1543 9.12021 13.9638 8.56021C13.7732 8.00021 13.5827 7.42688 13.3922 6.84021C13.2288 6.22688 13.0927 5.76021 12.9839 5.44021C12.8478 5.97355 12.6981 6.52021 12.5347 7.08021C12.3986 7.61355 12.2489 8.10688 12.0856 8.56021C11.9495 9.01355 11.827 9.40021 11.7181 9.72021L8.41093 18.3602H17.6385L14.3721 9.72021Z" fill="#EF3124"/>
    <path d="M307.708 15.9288H314.27C316.955 15.9288 319.008 16.61 320.43 17.9722C321.852 19.3344 322.563 21.0595 322.563 23.1476C322.563 24.5198 322.245 25.7676 321.608 26.8912C320.972 28.0048 320.037 28.8948 318.804 29.5609C317.571 30.2172 316.06 30.5453 314.27 30.5453H304.665V7.63623H308.185V27.2641H314.27C315.662 27.2641 316.806 26.8962 317.701 26.1604C318.595 25.4246 319.043 24.48 319.043 23.3266C319.043 22.1135 318.595 21.1242 317.701 20.3585C316.806 19.5929 315.662 19.2101 314.27 19.2101H307.708V15.9288Z" fill="white"/>
    <path d="M277.863 30.5453V27.2641H278.699C279.385 27.2641 279.956 27.1298 280.414 26.8614C280.871 26.583 281.239 26.1007 281.517 25.4146C281.806 24.7186 282.025 23.7541 282.174 22.5212C282.333 21.2783 282.447 19.6973 282.517 17.7783L282.934 7.63623H298.207V30.5453H294.687V10.9175H286.275L285.917 19.0908C285.838 20.97 285.669 22.6256 285.41 24.0574C285.162 25.4793 284.779 26.6725 284.262 27.6369C283.755 28.6014 283.078 29.3273 282.233 29.8145C281.388 30.3017 280.329 30.5453 279.056 30.5453H277.863Z" fill="white"/>
    <path d="M264.138 31.0225C262.07 31.0225 260.256 30.5304 258.695 29.546C257.143 28.5616 255.93 27.1845 255.055 25.4146C254.19 23.6447 253.758 21.5765 253.758 19.21C253.758 16.8237 254.19 14.7406 255.055 12.9608C255.93 11.1809 257.143 9.79883 258.695 8.81445C260.256 7.83008 262.07 7.33789 264.138 7.33789C266.207 7.33789 268.016 7.83008 269.567 8.81445C271.129 9.79883 272.342 11.1809 273.207 12.9608C274.082 14.7406 274.519 16.8237 274.519 19.21C274.519 21.5765 274.082 23.6447 273.207 25.4146C272.342 27.1845 271.129 28.5616 269.567 29.546C268.016 30.5304 266.207 31.0225 264.138 31.0225ZM264.138 27.8606C265.71 27.8606 267.002 27.4579 268.016 26.6525C269.031 25.8471 269.781 24.7882 270.268 23.4757C270.756 22.1632 270.999 20.7413 270.999 19.21C270.999 17.6788 270.756 16.252 270.268 14.9295C269.781 13.6071 269.031 12.5382 268.016 11.7228C267.002 10.9075 265.71 10.4998 264.138 10.4998C262.567 10.4998 261.275 10.9075 260.261 11.7228C259.246 12.5382 258.496 13.6071 258.009 14.9295C257.521 16.252 257.278 17.6788 257.278 19.21C257.278 20.7413 257.521 22.1632 258.009 23.4757C258.496 24.7882 259.246 25.8471 260.261 26.6525C261.275 27.4579 262.567 27.8606 264.138 27.8606Z" fill="white"/>
    <path d="M229.237 39.1362V7.63618H232.638V11.2754H233.055C233.314 10.8777 233.672 10.3706 234.129 9.75408C234.597 9.12766 235.263 8.57085 236.128 8.08363C237.003 7.58647 238.186 7.33789 239.678 7.33789C241.607 7.33789 243.307 7.82013 244.779 8.78462C246.25 9.74911 247.399 11.1163 248.224 12.8862C249.049 14.6561 249.462 16.7441 249.462 19.1504C249.462 21.5765 249.049 23.6795 248.224 25.4593C247.399 27.2292 246.255 28.6014 244.793 29.5758C243.332 30.5403 241.646 31.0225 239.737 31.0225C238.266 31.0225 237.087 30.7789 236.203 30.2917C235.318 29.7946 234.636 29.2328 234.159 28.6064C233.682 27.97 233.314 27.443 233.055 27.0254H232.757V39.1362H229.237ZM232.698 19.0907C232.698 20.8208 232.951 22.3471 233.458 23.6696C233.965 24.9821 234.706 26.0112 235.68 26.7569C236.655 27.4927 237.848 27.8606 239.26 27.8606C240.732 27.8606 241.96 27.4728 242.944 26.6973C243.938 25.9118 244.684 24.8578 245.181 23.5353C245.688 22.2029 245.942 20.7214 245.942 19.0907C245.942 17.4799 245.693 16.0282 245.196 14.7356C244.709 13.4331 243.968 12.4039 242.974 11.6483C241.989 10.8826 240.752 10.4998 239.26 10.4998C237.828 10.4998 236.625 10.8627 235.651 11.5886C234.676 12.3045 233.94 13.3088 233.443 14.6014C232.946 15.8841 232.698 17.3805 232.698 19.0907Z" fill="white"/>
    <path d="M205.489 10.9175V7.63623H224.103V10.9175H216.586V30.5453H213.066V10.9175H205.489Z" fill="white"/>
    <path d="M199.494 17.48V20.7612H186.846V17.48H199.494ZM187.681 7.63623V30.5453H184.161V7.63623H187.681ZM202.178 7.63623V30.5453H198.658V7.63623H202.178Z" fill="white"/>
    <path d="M168.408 31.0225C166.34 31.0225 164.525 30.5304 162.964 29.546C161.413 28.5616 160.2 27.1845 159.325 25.4146C158.46 23.6447 158.027 21.5765 158.027 19.21C158.027 16.8237 158.46 14.7406 159.325 12.9608C160.2 11.1809 161.413 9.79883 162.964 8.81445C164.525 7.83008 166.34 7.33789 168.408 7.33789C170.476 7.33789 172.286 7.83008 173.837 8.81445C175.398 9.79883 176.611 11.1809 177.476 12.9608C178.351 14.7406 178.789 16.8237 178.789 19.21C178.789 21.5765 178.351 23.6447 177.476 25.4146C176.611 27.1845 175.398 28.5616 173.837 29.546C172.286 30.5304 170.476 31.0225 168.408 31.0225ZM168.408 27.8606C169.979 27.8606 171.272 27.4579 172.286 26.6525C173.3 25.8471 174.051 24.7882 174.538 23.4757C175.025 22.1632 175.269 20.7413 175.269 19.21C175.269 17.6788 175.025 16.252 174.538 14.9295C174.051 13.6071 173.3 12.5382 172.286 11.7228C171.272 10.9075 169.979 10.4998 168.408 10.4998C166.837 10.4998 165.544 10.9075 164.53 11.7228C163.516 12.5382 162.765 13.6071 162.278 14.9295C161.791 16.252 161.547 17.6788 161.547 19.21C161.547 20.7413 161.791 22.1632 162.278 23.4757C162.765 24.7882 163.516 25.8471 164.53 26.6525C165.544 27.4579 166.837 27.8606 168.408 27.8606Z" fill="white"/>
    <path d="M152.065 30.5455L141.565 16.5256H137.806V30.5455H134.107V0H137.806V13.2443H139.417L151.647 0H156.062L143.713 13.4233L156.48 30.5455H152.065Z" fill="white"/>
</svg>
