<svg width="778" height="915" viewBox="0 0 778 915" fill="none" xmlns="http://www.w3.org/2000/svg">
<path fill-rule="evenodd" clip-rule="evenodd" d="M397.686 325.272C404.298 330.303 408.234 336.694 403.94 343.888C400.317 349.958 392.003 350.02 383.125 347.788C384.455 351.556 386.012 355.243 387.786 358.83C391.649 366.638 394.886 372.276 397.499 375.742C402.47 382.339 411.656 376.037 425.057 356.837C430.347 349.258 439.006 344.742 448.249 344.742C449.094 344.742 449.936 344.828 450.764 344.999C457.509 346.387 461.852 352.982 460.463 359.728C445.573 432.052 433.755 471.509 425.01 478.099C411.014 488.645 398.009 535.263 398.009 535.263L319.445 523.87L310.718 489.603C308.062 479.173 307.621 468.302 309.426 457.691L328.935 342.957C330.239 335.291 332.653 327.856 336.102 320.887L343.458 306.022C349.227 294.364 361.48 287.358 374.454 288.299L444.639 293.39C450.612 293.823 455.825 297.598 458.101 303.136C461.416 311.202 457.565 320.428 449.499 323.742C442.911 326.45 425.64 326.959 397.686 325.272Z" fill="#FF6161"/>
<path fill-rule="evenodd" clip-rule="evenodd" d="M317 388.992L303.242 412.331C303.081 412.605 302.931 412.886 302.794 413.173L254 515.242L263 568.742L341 509.242L337 450.742L314 466.242L326.424 392.429C326.892 389.651 325.019 387.02 322.241 386.553C320.157 386.202 318.073 387.172 317 388.992Z" fill="#B72A2A"/>
<path fill-rule="evenodd" clip-rule="evenodd" d="M263.5 401.185C244.462 394.224 225.425 387.262 206.387 380.301C159.704 363.231 108.023 387.236 90.9525 433.919C87.7052 442.8 85.8777 452.136 85.5372 461.586L82 559.742H284C270.333 454.037 263.5 401.185 263.5 401.185Z" fill="#EF3124"/>
<path fill-rule="evenodd" clip-rule="evenodd" d="M254.863 210.726L301.102 206.879L309.067 153.393C309.312 151.754 310.838 150.623 312.477 150.868C313.789 151.063 314.817 152.097 315.005 153.41L323.591 213.464C324.451 219.478 320.273 225.051 314.259 225.911C314.21 225.918 314.161 225.924 314.112 225.931L259.788 232.953C252.999 233.83 246.747 229.136 245.696 222.371C244.838 216.845 248.621 211.67 254.147 210.811C254.385 210.774 254.623 210.746 254.863 210.726Z" fill="#B72A2A"/>
<mask id="mask0_3471_19682" style="mask-type:alpha" maskUnits="userSpaceOnUse" x="83" y="0" width="208" height="406">
<path d="M136.692 401.564C133.454 402.811 129.884 403.345 126.195 402.992C124.827 402.862 123.472 402.615 122.145 402.256C109.155 398.738 101.477 385.355 104.995 372.365L110.445 352.242L110.366 352.286C106.099 354.638 101.061 355.162 96.4011 353.736C86.888 350.826 81.535 340.756 84.4449 331.242L112.896 232.291C115.24 220.767 119.433 206.57 126.205 186.003L126.999 183.242L127.031 183.501C135.369 158.315 147.426 123.828 164.445 73.7424C164.761 72.8117 174.126 44.6784 174.445 43.7424C176.459 41.0576 180.267 40.5135 182.952 42.5271C184.041 43.3438 184.824 44.5025 185.176 45.8175L191.445 69.2424L200.046 6.05666C200.568 2.226 204.096 -0.45665 207.926 0.0648015C210.656 0.436338 212.913 2.37402 213.695 5.01543L214.945 9.2424L286.567 242.014C289.469 251.447 290.945 261.26 290.945 271.129V364.742C290.945 387.386 272.589 405.742 249.945 405.742H154.741C148.274 405.742 142.145 404.242 136.692 401.564Z" fill="white"/>
</mask>
<g mask="url(#mask0_3471_19682)">
<path d="M136.692 401.564C133.454 402.811 129.884 403.345 126.195 402.992C124.827 402.862 123.472 402.615 122.145 402.256C109.155 398.738 101.477 385.355 104.995 372.365L110.445 352.242L110.366 352.286C106.099 354.638 101.061 355.162 96.4011 353.736C86.888 350.826 81.535 340.756 84.4449 331.242L112.896 232.291C115.24 220.767 119.433 206.57 126.205 186.003L126.999 183.242L127.031 183.501C135.369 158.315 147.426 123.828 164.445 73.7424C164.761 72.8117 174.126 44.6784 174.445 43.7424C176.459 41.0576 180.267 40.5135 182.952 42.5271C184.041 43.3438 184.824 44.5025 185.176 45.8175L191.445 69.2424L200.046 6.05666C200.568 2.226 204.096 -0.45665 207.926 0.0648015C210.656 0.436338 212.913 2.37402 213.695 5.01543L214.945 9.2424L286.567 242.014C289.469 251.447 290.945 261.26 290.945 271.129V364.742C290.945 387.386 272.589 405.742 249.945 405.742H154.741C148.274 405.742 142.145 404.242 136.692 401.564Z" fill="#EF3124"/>
<path fill-rule="evenodd" clip-rule="evenodd" d="M288.446 252.742C286.446 247.409 283.446 245.242 279.446 246.242C275.446 247.242 272.779 250.909 271.446 257.242C265.281 247.225 253.948 241.594 242.24 242.731C238.82 243.063 235.055 243.567 230.946 244.242C206.678 248.23 195.152 272.194 193.946 284.742C192.92 295.411 193.762 288.286 193.999 315.242C194.05 321.044 191.17 336.466 185.359 361.509C182.613 373.345 189.982 385.166 201.817 387.912C203.402 388.28 205.023 388.471 206.65 388.481C228.7 388.622 241.131 388.542 243.946 388.242C258.828 386.657 262.053 383.242 272.999 383.242C282.233 383.242 286.733 385.576 286.499 390.242C302.485 383.969 311.134 368.135 312.446 342.742C313.757 317.35 305.757 287.35 288.446 252.742Z" fill="#FF6161"/>
</g>
<path fill-rule="evenodd" clip-rule="evenodd" d="M241.945 365.242H249.945L247.644 375.725C247.47 376.521 246.83 377.131 246.027 377.268C244.939 377.454 243.905 376.722 243.719 375.633L241.945 365.242ZM280.945 365.242H288.945L286.644 375.725C286.47 376.521 285.83 377.131 285.027 377.268C283.939 377.454 282.905 376.722 282.719 375.633L280.945 365.242Z" fill="white"/>
<mask id="mask1_3471_19682" style="mask-type:alpha" maskUnits="userSpaceOnUse" x="412" y="547" width="355" height="342">
<path d="M608.047 649.811C630.192 595.367 645.412 565.156 653.705 559.178C663.872 551.851 675.416 553.628 680.294 559.662C696.375 544.078 712.301 543.747 728.072 558.668C729.432 559.586 730.678 560.511 731.809 561.442C737.214 561.377 742.682 562.434 748.214 564.611C776.002 575.552 772.106 598.174 736.526 632.479L634.75 749.608C622.664 763.516 606.937 773.781 589.311 779.265C584.768 780.678 578.969 785.445 571.913 793.566C565.643 800.781 562.239 806.204 561.702 809.833C558.925 828.602 550.857 846.155 538.442 860.444L525.401 875.451C524.338 876.674 523.196 877.825 521.981 878.897C506.686 892.389 483.251 890.854 469.637 875.469L445.702 848.419L445.515 848.591L445.232 847.888L440.643 842.702L442.438 840.93L412.471 766.29L538.768 649.3L606.745 651.544C607.18 650.964 607.614 650.387 608.047 649.811Z" fill="white"/>
</mask>
<g mask="url(#mask1_3471_19682)">
<path d="M608.047 649.811C630.192 595.367 645.412 565.156 653.705 559.178C663.872 551.851 675.416 553.628 680.294 559.662C696.375 544.078 712.301 543.747 728.072 558.668C729.432 559.586 730.678 560.511 731.809 561.442C737.214 561.377 742.682 562.433 748.214 564.611C776.002 575.551 772.106 598.174 736.526 632.479L634.75 749.608C622.664 763.516 606.937 773.781 589.31 779.265C584.768 780.678 578.969 785.445 571.913 793.566C565.643 800.781 562.239 806.204 561.702 809.833C558.925 828.602 550.857 846.155 538.441 860.444L525.401 875.451C524.338 876.674 523.196 877.825 521.981 878.897C506.686 892.389 483.251 890.854 469.637 875.469L445.702 848.419L445.515 848.591L445.232 847.888L440.643 842.702L442.438 840.93L412.471 766.29L538.768 649.3L606.745 651.544C607.18 650.964 607.614 650.387 608.047 649.811Z" fill="#FF6161"/>
</g>
<mask id="mask2_3471_19682" style="mask-type:alpha" maskUnits="userSpaceOnUse" x="200" y="309" width="51" height="29">
<path d="M236.945 309.742H214.945C207.213 309.742 200.945 316.01 200.945 323.742C200.945 331.474 207.213 337.742 214.945 337.742H236.945C244.677 337.742 250.945 331.474 250.945 323.742C250.945 316.01 244.677 309.742 236.945 309.742Z" fill="white"/>
</mask>
<g mask="url(#mask2_3471_19682)">
<path d="M236.945 309.742H214.945C207.213 309.742 200.945 316.01 200.945 323.742C200.945 331.474 207.213 337.742 214.945 337.742H236.945C244.677 337.742 250.945 331.474 250.945 323.742C250.945 316.01 244.677 309.742 236.945 309.742Z" fill="white"/>
<path d="M251.445 320.742C251.445 314.667 246.52 309.742 240.445 309.742C234.37 309.742 229.445 314.667 229.445 320.742V326.742C229.445 332.818 234.37 337.742 240.445 337.742C246.52 337.742 251.445 332.818 251.445 326.742V320.742Z" fill="black"/>
</g>
<mask id="mask3_3471_19682" style="mask-type:alpha" maskUnits="userSpaceOnUse" x="277" y="309" width="14" height="29">
<path d="M290.945 309.742V337.742C283.489 337.742 277.445 331.698 277.445 324.242V323.242C277.445 315.787 283.489 309.742 290.945 309.742Z" fill="white"/>
</mask>
<g mask="url(#mask3_3471_19682)">
<path d="M290.945 309.742V337.742C283.489 337.742 277.445 331.698 277.445 324.242V323.242C277.445 315.787 283.489 309.742 290.945 309.742Z" fill="white"/>
<path d="M306.945 320.742C306.945 314.667 302.02 309.742 295.945 309.742C289.87 309.742 284.945 314.667 284.945 320.742V326.742C284.945 332.818 289.87 337.742 295.945 337.742C302.02 337.742 306.945 332.818 306.945 326.742V320.742Z" fill="black"/>
</g>
<path fill-rule="evenodd" clip-rule="evenodd" d="M513 733.242C529.121 730.762 542.744 719.975 548.855 704.852L549 704.492C555.26 688.998 553.495 671.415 544.28 657.474L539.5 650.242C557.033 656.618 576.415 647.573 582.791 630.04C582.94 629.63 583.081 629.218 583.214 628.803L589 610.742C560.172 613.526 539.839 611.526 528 604.742C516.161 597.958 506.161 589.625 498 579.742L488.5 595.742L513 733.242Z" fill="#B72A2A"/>
<mask id="mask4_3471_19682" style="mask-type:alpha" maskUnits="userSpaceOnUse" x="277" y="733" width="422" height="158">
<path d="M539.451 804.089C595.177 785.198 628.027 776.915 638 779.242C650.225 782.095 656.472 791.922 655.117 799.52C677.474 801.427 688.196 813.168 687.285 834.742L684.211 835.978C689.51 840.586 693.451 846.508 696.035 853.742C706.035 881.742 686.368 893.576 637.035 889.242H481.554C463.091 889.242 444.989 884.131 429.252 874.475C425.198 871.987 417.78 870.742 407 870.742C397.422 870.742 391.084 871.725 387.986 873.689C371.969 883.848 353.393 889.242 334.426 889.242H314.504C312.881 889.242 311.259 889.136 309.65 888.923C289.392 886.241 275.143 867.646 277.824 847.388L282.538 811.771L282.285 811.742L282.631 811.071L283.535 804.242L286.055 804.434L322.785 733.242L494.285 751.742L537.285 804.242C538.009 804.191 538.731 804.14 539.451 804.089Z" fill="white"/>
</mask>
<g mask="url(#mask4_3471_19682)">
<path d="M539.451 804.089C595.177 785.198 628.027 776.915 638 779.242C650.225 782.095 656.472 791.922 655.117 799.52C677.474 801.427 688.196 813.168 687.285 834.742L684.211 835.978C689.51 840.586 693.451 846.508 696.035 853.742C706.035 881.742 686.368 893.576 637.035 889.242H481.554C463.091 889.242 444.989 884.131 429.252 874.475C425.198 871.987 417.78 870.742 407 870.742C397.422 870.742 391.084 871.725 387.986 873.689C371.969 883.848 353.393 889.242 334.426 889.242H314.504C312.881 889.242 311.259 889.136 309.65 888.923C289.392 886.241 275.143 867.646 277.824 847.388L282.538 811.771L282.285 811.742L282.631 811.071L283.535 804.242L286.055 804.434L322.785 733.242L494.285 751.742L537.285 804.242C538.009 804.191 538.731 804.14 539.451 804.089Z" fill="#FF6161"/>
<path d="M689.137 834.093C688.743 833.531 687.977 832.63 686.802 831.506C684.893 829.679 682.497 827.864 679.577 826.179C665.666 818.146 645.477 815.763 618.037 822.297C616.963 822.552 616.299 823.631 616.555 824.706C616.811 825.78 617.889 826.444 618.964 826.188C645.444 819.883 664.587 822.142 677.577 829.643C680.214 831.165 682.354 832.786 684.037 834.396C684.616 834.949 685.093 835.458 685.475 835.907C685.69 836.16 685.818 836.326 685.864 836.392C686.498 837.296 687.746 837.514 688.65 836.879C689.554 836.244 689.772 834.997 689.137 834.093Z" fill="#D9D9D6"/>
<path d="M695.164 851.242C696.269 851.242 697.164 852.138 697.164 853.242C697.164 854.347 696.269 855.242 695.164 855.242C692.234 855.242 678.435 852.073 668.917 848.955C662.733 846.93 657.973 844.887 655.067 842.859C650.923 839.967 650.048 836.31 654.038 833.59C661.993 828.166 673.399 828.166 688.164 833.356C689.206 833.722 689.754 834.864 689.387 835.906C689.021 836.948 687.879 837.495 686.837 837.129C673.154 832.319 663.002 832.319 656.291 836.895C655.109 837.701 655.197 838.073 657.356 839.579C659.86 841.326 664.323 843.241 670.162 845.154C679.301 848.148 692.775 851.242 695.164 851.242ZM670.501 797.242C671.605 797.242 672.501 798.138 672.501 799.242C672.501 800.347 671.605 801.242 670.501 801.242C667.233 801.242 664.903 800.989 660.104 800.259L659.969 800.238C653.133 799.197 649.801 798.994 644.52 799.692C637.48 800.622 628.941 803.326 617.677 808.453C616.671 808.911 615.485 808.467 615.028 807.462C614.57 806.456 615.014 805.27 616.02 804.813C627.617 799.534 636.522 796.713 643.996 795.726C649.737 794.968 653.392 795.19 660.571 796.283L660.706 796.304C665.316 797.006 667.491 797.242 670.501 797.242Z" fill="#D9D9D6"/>
</g>
<path fill-rule="evenodd" clip-rule="evenodd" d="M270.285 296.271L284.52 340.838C285.988 345.436 283.451 350.354 278.853 351.823C278.042 352.082 277.197 352.221 276.346 352.236L271.698 352.317C267.833 352.385 264.645 349.306 264.577 345.44C264.577 345.407 264.576 345.373 264.576 345.34L264.428 297.193C264.422 295.536 265.761 294.189 267.418 294.184C268.727 294.18 269.887 295.024 270.285 296.271Z" fill="#505759"/>
<mask id="mask5_3471_19682" style="mask-type:alpha" maskUnits="userSpaceOnUse" x="49" y="446" width="490" height="359">
<path d="M87.0007 536.742L51.4073 695.21C41.7247 738.319 68.8219 781.115 111.931 790.798C117.685 792.09 123.565 792.742 129.463 792.742H211.217C248.561 792.742 282.793 771.935 299.987 738.785L334.501 672.242L283.501 804.242H306.942C332.566 804.242 356.788 792.547 372.723 772.481L388.001 753.242V771.242C388.001 789.468 402.775 804.242 421.001 804.242C440.81 804.242 458.499 791.842 465.254 773.22L472.501 753.242L480.558 768.748C491.89 790.557 514.423 804.242 539.001 804.242C515.687 734.694 502.354 678.86 499.001 636.742C495.648 594.625 499.481 531.125 510.501 446.242H411.501L233.001 553.242L87.0007 536.742Z" fill="white"/>
</mask>
<g mask="url(#mask5_3471_19682)">
<path d="M87.0007 536.742L51.4073 695.21C41.7247 738.319 68.8219 781.115 111.931 790.798C117.685 792.09 123.565 792.742 129.463 792.742H211.217C248.561 792.742 282.793 771.935 299.987 738.785L334.501 672.242L283.501 804.242H306.942C332.566 804.242 356.788 792.547 372.723 772.481L388.001 753.242V771.242C388.001 789.468 402.775 804.242 421.001 804.242C440.81 804.242 458.499 791.842 465.254 773.22L472.501 753.242L480.558 768.748C491.89 790.557 514.423 804.242 539.001 804.242C515.687 734.694 502.354 678.86 499.001 636.742C495.648 594.625 499.481 531.125 510.501 446.242H411.501L233.001 553.242L87.0007 536.742Z" fill="#B72A2A"/>
</g>
<path d="M205.86 375.157C211.168 369.848 215.153 367.242 217.445 367.242H289.945C291.05 367.242 291.945 366.347 291.945 365.242C291.945 364.138 291.05 363.242 289.945 363.242H217.445C213.737 363.242 209.056 366.303 203.031 372.328C202.25 373.109 202.25 374.376 203.031 375.157C203.812 375.938 205.078 375.938 205.86 375.157Z" fill="#505759"/>
<mask id="mask6_3471_19682" style="mask-type:alpha" maskUnits="userSpaceOnUse" x="202" y="309" width="48" height="29">
<path d="M249.074 316.742H202.82C205.241 312.558 209.765 309.742 214.947 309.742H236.947C242.129 309.742 246.654 312.558 249.074 316.742V316.742ZM248.438 331.742C245.908 335.369 241.705 337.742 236.947 337.742H214.947C210.19 337.742 205.987 335.369 203.457 331.742H248.438Z" fill="white"/>
</mask>
<g mask="url(#mask6_3471_19682)">
<path d="M249.074 316.742H202.82C205.241 312.558 209.765 309.742 214.947 309.742H236.947C242.129 309.742 246.654 312.558 249.074 316.742V316.742ZM248.438 331.742C245.908 335.369 241.705 337.742 236.947 337.742H214.947C210.19 337.742 205.987 335.369 203.457 331.742H248.438Z" fill="#505759"/>
</g>
<path fill-rule="evenodd" clip-rule="evenodd" d="M505.352 395.755L420.654 448.547L543.146 471.025L597.21 430.96C608.697 422.447 617.842 411.211 623.776 398.32L638.623 366.062C643.516 355.433 643.088 343.232 637.469 333.14L629.314 318.491L628.904 318.747C627.393 309.929 625.597 299.44 623.514 287.279C622.365 280.575 618.24 274.777 612.263 271.467L606.669 268.368L596.975 263.852L596.161 255.276L538.735 205.212C538.566 205.065 538.394 204.921 538.219 204.781C531.299 199.249 521.055 200.384 515.336 207.316C510.201 213.542 509.85 222.114 514.014 228.489C509.546 229.411 505.521 232.32 503.369 236.705C503.058 237.339 502.793 237.993 502.575 238.662C499.555 247.935 504.081 257.842 513.055 261.606L562.123 282.187C564.863 311.413 566.234 326.026 566.234 326.026C566.234 326.026 516.382 363.067 501.783 365.733C492.051 367.51 484.638 365.348 479.547 359.245L500.678 298.532C500.739 298.357 500.797 298.181 500.852 298.004C503.708 288.865 498.564 279.296 489.362 276.631C479.741 273.844 469.489 279.158 466.22 288.626C446.768 344.959 437.929 378.336 439.703 388.757C442.622 405.9 419.826 448.834 419.826 448.834L505.352 395.755Z" fill="#FF6161"/>
<mask id="mask7_3471_19682" style="mask-type:alpha" maskUnits="userSpaceOnUse" x="278" y="309" width="13" height="29">
<path d="M290.947 316.742H278.82C281.241 312.558 285.765 309.742 290.947 309.742V316.742ZM290.947 337.742C286.19 337.742 281.987 335.369 279.457 331.742H290.947V337.742Z" fill="white"/>
</mask>
<g mask="url(#mask7_3471_19682)">
<path d="M290.947 316.742H278.82C281.241 312.558 285.765 309.742 290.947 309.742V316.742ZM290.947 337.742C286.19 337.742 281.987 335.369 279.457 331.742H290.947V337.742Z" fill="#505759"/>
</g>
<path fill-rule="evenodd" clip-rule="evenodd" d="M551.885 181.288L485.459 179.32C478.344 179.109 472.204 184.271 471.188 191.316L449.863 339.241L532.905 349.604L545.926 340.583L565.344 197.16C566.381 189.498 561.011 182.446 553.349 181.408C552.864 181.343 552.375 181.303 551.885 181.288Z" fill="black"/>
<path d="M499.5 336.742C493.701 336.742 489 332.041 489 326.242C489 320.443 493.701 315.742 499.5 315.742C505.299 315.742 510 320.443 510 326.242C510 332.041 505.299 336.742 499.5 336.742ZM499.5 332.742C503.09 332.742 506 329.832 506 326.242C506 322.653 503.09 319.742 499.5 319.742C495.91 319.742 493 322.653 493 326.242C493 329.832 495.91 332.742 499.5 332.742ZM527.364 187.589C527.653 187.599 527.816 187.586 527.888 187.566C527.884 187.568 527.882 187.567 527.912 187.542C528.025 187.449 528.148 187.26 528.255 186.964C528.413 186.528 528.481 186.084 528.523 184.883L528.528 184.728L529.731 179.825L532.644 180.54L531.515 185.144C531.461 186.528 531.347 187.237 531.076 187.986C530.797 188.756 530.38 189.395 529.821 189.856C529.132 190.425 528.414 190.627 527.259 190.587L507.399 189.893C506.244 189.853 505.541 189.601 504.894 188.986C504.369 188.487 503.997 187.82 503.772 187.032C503.546 186.238 503.486 185.498 503.538 184.01L503.543 183.855L504.746 178.953L507.66 179.668L506.531 184.268C506.497 185.356 506.536 185.784 506.658 186.21C506.744 186.512 506.854 186.71 506.96 186.811C506.988 186.838 506.986 186.838 506.981 186.835C507.051 186.86 507.213 186.885 507.504 186.895L527.364 187.589Z" fill="white"/>
<mask id="mask8_3471_19682" style="mask-type:alpha" maskUnits="userSpaceOnUse" x="0" y="792" width="271" height="98">
<path d="M58.2547 825.361L0 889.242H271L243.467 842.216C225.525 811.573 192.679 792.742 157.17 792.742H132.145C104.024 792.742 77.2028 804.583 58.2547 825.361Z" fill="white"/>
</mask>
<g mask="url(#mask8_3471_19682)">
<path d="M58.2547 825.361L0 889.242H271L243.467 842.216C225.525 811.573 192.679 792.742 157.17 792.742H132.145C104.024 792.742 77.2028 804.583 58.2547 825.361Z" fill="#B72A2A"/>
<path d="M32.5234 844.014L35.7728 840.514C59.1657 862.464 83.7348 873.385 109.551 873.385C130.269 873.385 153.264 863.396 168.299 846.55C186.173 826.524 191.857 798.87 181.88 765.553L186.44 764.172C196.888 799.063 190.847 828.457 171.844 849.748C155.892 867.621 131.601 878.172 109.551 878.172C82.4525 878.172 56.7533 866.75 32.5234 844.014ZM241.094 832.412L242.906 837.072C213.959 848.33 202.009 866.726 206.464 892.822L201.536 893.663C196.658 865.092 210.041 844.488 241.094 832.412Z" fill="white"/>
<path d="M39.5234 824.748C59.7579 843.66 81.2416 853.172 103.904 853.172C122.37 853.172 142.695 844.377 156.048 829.475C171.954 811.723 177.01 787.219 168.277 758.172L163.701 759.536C171.966 787.028 167.265 809.812 152.483 826.309C140.05 840.185 121.028 848.417 103.904 848.417C82.5341 848.417 62.1874 839.408 42.7929 821.281L39.5234 824.748Z" fill="white"/>
</g>
<path fill-rule="evenodd" clip-rule="evenodd" d="M295.946 242.242C300.446 260.242 295.946 268.742 280.946 268.742C270.946 268.742 260.946 264.076 250.946 254.742C256.279 264.076 253.279 268.742 241.946 268.742C224.946 268.742 222.446 258.183 222.446 257.242C222.446 256.301 221.832 240.234 225.446 236.742C227.303 234.948 235.812 234.948 250.973 236.742C277.955 228.409 292.946 230.242 295.946 242.242Z" fill="#EF3124"/>
<path fill-rule="evenodd" clip-rule="evenodd" d="M175.539 291.365C180.039 309.365 175.539 317.865 160.539 317.865C150.539 317.865 140.539 313.199 130.539 303.865C135.873 313.199 132.873 317.865 121.539 317.865C104.539 317.865 102.039 307.306 102.039 306.365C102.039 305.424 101.426 289.357 105.039 285.865C106.897 284.071 115.406 284.071 130.567 285.865C157.549 277.532 172.539 279.365 175.539 291.365Z" fill="#EF3124"/>
<path fill-rule="evenodd" clip-rule="evenodd" d="M513.5 164.742L502 137.742H500.5C477.304 137.742 458.5 118.938 458.5 95.7424V47.2424C458.5 24.0464 477.304 5.2424 500.5 5.2424H630.5C653.696 5.2424 672.5 24.0464 672.5 47.2424V95.7424C672.5 118.938 653.696 137.742 630.5 137.742H533.5L513.5 164.742Z" fill="#B72A2A"/>
<path fill-rule="evenodd" clip-rule="evenodd" d="M416.828 442.622C416.828 442.622 441.757 400.862 439.713 383.538C438.47 373.006 448.985 340.061 471.256 284.702C475 275.398 485.501 270.632 494.962 273.943C504.615 277.322 510.103 287.34 507.742 297.271L495.009 350.811C493.624 356.633 497.256 362.404 503.121 363.701C504.152 363.929 505.214 364.007 506.272 363.932" fill="#FF6161"/>
<path fill-rule="evenodd" clip-rule="evenodd" d="M237.68 299.508L204.567 305.452C204.024 305.549 203.504 305.188 203.406 304.644C203.378 304.486 203.388 304.324 203.436 304.171L205.198 298.492C206.583 294.03 210.315 290.694 214.904 289.817L226.612 287.579L231.948 290.242L231.803 286.586L234.568 286.058C237.826 285.435 240.972 287.571 241.595 290.829C241.653 291.13 241.687 291.436 241.698 291.742L241.793 294.409C241.882 296.895 240.129 299.069 237.68 299.508ZM281.506 287.874C279.396 287.203 277.978 285.223 278.023 283.009L278.114 278.486C278.123 278.055 278.198 277.628 278.336 277.22C279.082 275.02 281.47 273.841 283.671 274.586L283.589 278.242L286.599 275.579L290.439 276.88C294.736 278.336 297.896 282.023 298.679 286.492L299.663 292.117C299.691 292.275 299.68 292.439 299.631 292.592C299.464 293.118 298.901 293.409 298.375 293.242L281.506 287.874Z" fill="#EF3124"/>
<path fill-rule="evenodd" clip-rule="evenodd" d="M262.74 400.582L279.685 391.572L281.734 407.891C282.132 411.062 281.131 414.251 278.991 416.625C274.923 421.138 267.968 421.499 263.455 417.432L259.652 414.004L257.618 422.846C256.623 427.17 253.877 430.888 250.036 433.109C242.387 437.534 232.6 434.919 228.175 427.27L220.035 413.196L209.281 435.466C207.17 439.838 203.188 443.015 198.456 444.102C189.844 446.081 181.258 440.704 179.279 432.092L174.558 411.544L166.713 423.702C164.087 427.772 159.758 430.433 154.94 430.939C146.152 431.863 138.28 425.487 137.356 416.698L135.359 397.688C151.629 396.233 162.991 396.252 169.447 397.742C171.136 398.132 172.561 398.64 173.723 399.264C177.494 397.544 182.735 397.037 189.447 397.742C195.517 398.38 203.733 400.109 214.096 402.929L213.105 401.216L264.465 393.081L262.74 400.582Z" fill="#EF3124"/>
<path d="M177.471 432.71C179.697 442.399 189.356 448.448 199.045 446.222C204.368 444.999 208.848 441.425 211.223 436.506L220.335 417.637L226.585 428.442C231.562 437.048 242.573 439.989 251.179 435.011C255.5 432.512 258.589 428.33 259.708 423.465L260.98 417.937L262.257 419.088C263.078 419.828 264.342 419.762 265.082 418.942C265.821 418.121 265.755 416.856 264.935 416.117L261.132 412.689C259.999 411.668 258.186 412.24 257.844 413.726L255.81 422.568C254.939 426.352 252.537 429.605 249.176 431.549C242.483 435.42 233.919 433.132 230.047 426.439L221.907 412.365C221.103 410.976 219.072 411.052 218.374 412.497L207.621 434.767C205.774 438.592 202.289 441.372 198.149 442.324C190.614 444.055 183.101 439.35 181.369 431.815L176.648 411.267C176.252 409.543 173.977 409.144 173.018 410.63L165.173 422.788C162.875 426.349 159.088 428.678 154.872 429.121C147.183 429.929 140.294 424.35 139.486 416.66L137.489 397.649C137.374 396.551 136.39 395.754 135.291 395.869C134.193 395.984 133.396 396.969 133.511 398.067L135.508 417.078C136.547 426.965 145.403 434.138 155.29 433.099C160.71 432.53 165.58 429.536 168.534 424.957L173.81 416.78L177.471 432.71Z" fill="#D9D9D6"/>
<path fill-rule="evenodd" clip-rule="evenodd" d="M139.865 221.471L93.9455 228.125L74.1527 177.801C73.5463 176.259 71.8047 175.501 70.2628 176.108C69.0283 176.593 68.2592 177.832 68.3717 179.154L73.5144 239.6C74.0294 245.654 79.3541 250.143 85.4073 249.628C85.4565 249.624 85.5057 249.62 85.5549 249.615L140.066 244.237C146.879 243.564 151.914 237.584 151.417 230.757C151.01 225.179 146.159 220.987 140.581 221.394C140.342 221.411 140.103 221.437 139.865 221.471Z" fill="#B72A2A"/>
<path fill-rule="evenodd" clip-rule="evenodd" d="M115.466 394.502L227 548.742L416.114 394.504C418.37 392.664 420.724 390.947 423.164 389.361L440.563 378.052C445.886 374.591 452.836 374.972 457.75 378.992C463.091 383.362 466.788 389.418 468.234 396.165L469 399.742L482.456 393.152C489.151 389.873 497.236 392.642 500.516 399.337C502.356 403.093 502.35 407.49 500.5 411.242L517.174 408.396C519.717 407.961 522.301 407.818 524.876 407.968L565.483 410.337C572.651 410.755 578.122 416.905 577.704 424.072C577.659 424.842 577.546 425.606 577.366 426.355L572.233 447.696C571.753 449.694 570.768 451.534 569.372 453.041L531.563 493.893C529.19 496.457 526.655 498.864 523.971 501.1L229.741 746.292C221.822 752.891 210.284 752.767 202.509 745.999L111.357 666.656C99.3777 656.229 92.5004 641.125 92.5004 625.242L87.7653 629.061C81.5262 634.092 72.586 633.958 66.5004 628.742C60.0787 623.238 57.3674 614.548 59.5199 606.368L63.5004 591.242L58.4727 595.459C52.7073 600.295 44.1136 599.541 39.2781 593.775C39.2688 593.764 39.2596 593.753 39.2504 593.742C33.802 587.204 32.0786 578.332 34.6829 570.23L39.5004 555.242L33.1505 559.476C27.2686 563.397 19.4261 562.563 14.5004 557.492C9.38196 552.223 8.04688 544.342 11.1445 537.681L75.9734 398.28C81.3299 386.762 95.0093 381.767 106.527 387.124C110.088 388.78 113.165 391.32 115.466 394.502Z" fill="#EF3124"/>
<path d="M180.666 482.136C180.055 481.216 178.814 480.965 177.894 481.576C176.974 482.187 176.723 483.429 177.334 484.349L220.834 549.849C221.473 550.811 222.791 551.033 223.71 550.335L248.71 531.335C249.59 530.666 249.761 529.412 249.093 528.532C248.424 527.653 247.169 527.482 246.29 528.15L222.987 545.86L180.666 482.136Z" fill="#D9D9D6"/>
<path d="M190.619 71.5836L206.707 118.383C207.066 119.427 208.204 119.983 209.249 119.624C210.293 119.265 210.849 118.127 210.49 117.082L194.402 70.2832C194.043 69.2386 192.905 68.6829 191.86 69.042C190.816 69.4011 190.26 70.539 190.619 71.5836Z" fill="#D9D9D6"/>
<mask id="mask9_3471_19682" style="mask-type:alpha" maskUnits="userSpaceOnUse" x="121" y="290" width="43" height="55">
<path d="M153.284 344.667C131.761 343.774 121 334.905 121 318.06C121 300.733 132.386 291.644 155.158 290.793C154.59 291.857 154.17 293.3 154 295.242C153.435 301.698 156.488 304.874 163.16 304.77C151.566 313.86 145.68 322.017 145.5 329.242C145.342 335.578 148.112 341.286 153.284 344.667Z" fill="white"/>
</mask>
<g mask="url(#mask9_3471_19682)">
<path d="M153.284 344.667C131.761 343.774 121 334.905 121 318.06C121 300.733 132.386 291.644 155.158 290.793C154.59 291.857 154.17 293.3 154 295.242C153.435 301.698 156.488 304.874 163.16 304.77C151.566 313.86 145.68 322.017 145.5 329.242C145.342 335.578 148.112 341.286 153.284 344.667Z" fill="#FF6161"/>
</g>
<path d="M592.529 258.577C592.344 257.488 593.077 256.456 594.166 256.271C595.255 256.086 596.287 256.819 596.472 257.908L607.54 323.083C609.168 332.67 605.705 342.414 598.393 348.825L572.819 371.246C571.988 371.974 570.725 371.891 569.996 371.061C569.268 370.23 569.351 368.967 570.182 368.239L595.756 345.817C602.024 340.322 604.992 331.97 603.596 323.753L592.529 258.577ZM626.025 320.554C625.853 319.463 626.597 318.439 627.688 318.267C628.779 318.095 629.804 318.839 629.976 319.93L632.9 338.448C633.992 345.363 632.453 352.436 628.588 358.273L609.668 386.847C609.058 387.768 607.817 388.02 606.896 387.41C605.975 386.8 605.723 385.559 606.333 384.638L625.253 356.065C628.566 351.062 629.885 344.999 628.949 339.071L626.025 320.554ZM481.502 274.669C481.542 273.565 482.47 272.703 483.574 272.744C484.678 272.784 485.54 273.712 485.499 274.816C484.802 293.817 477.59 304.995 463.888 307.704C462.805 307.919 461.753 307.214 461.538 306.13C461.324 305.047 462.029 303.995 463.112 303.78C474.744 301.48 480.866 291.991 481.502 274.669Z" fill="#D9D9D6"/>
<path d="M539.468 77.2704V86.6944H530.788V93.7624H519.628V86.6944H489V77.2704L519.628 50.3624H530.788V77.2704H539.468ZM501.028 77.2704H519.628V61.5224L501.028 77.2704ZM567.802 94.3824C550.566 94.3824 542.382 86.4464 542.382 72.0004C542.382 57.6164 550.566 49.7424 567.802 49.7424C584.976 49.7424 593.222 57.6784 593.222 72.0004C593.222 86.3844 584.976 94.3824 567.802 94.3824ZM567.802 85.0204C577.598 85.0204 582.062 80.1224 582.062 72.0004C582.062 63.9404 577.598 59.1044 567.802 59.1044C558.006 59.1044 553.542 63.8784 553.542 72.0004C553.542 80.1844 558.006 85.0204 567.802 85.0204ZM647.348 77.2704V86.6944H638.668V93.7624H627.508V86.6944H596.88V77.2704L627.508 50.3624H638.668V77.2704H647.348ZM608.908 77.2704H627.508V61.5224L608.908 77.2704Z" fill="white"/>
</svg>
