<svg width="42" height="42" viewBox="0 0 42 42" fill="none" xmlns="http://www.w3.org/2000/svg">
<g clip-path="url(#clip0_3471_19669)">
<path d="M20.9842 3.91669C11.5542 3.91669 3.91797 11.57 3.91797 21C3.91797 30.43 11.5542 38.0834 20.9842 38.0834C30.4313 38.0834 38.0846 30.43 38.0846 21C38.0846 11.57 30.4313 3.91669 20.9842 3.91669ZM21.0013 34.6667C13.4505 34.6667 7.33464 28.5509 7.33464 21C7.33464 13.4492 13.4505 7.33335 21.0013 7.33335C28.5521 7.33335 34.668 13.4492 34.668 21C34.668 28.5509 28.5521 34.6667 21.0013 34.6667ZM26.9805 19.2917C28.3984 19.2917 29.543 18.1471 29.543 16.7292C29.543 15.3113 28.3984 14.1667 26.9805 14.1667C25.5626 14.1667 24.418 15.3113 24.418 16.7292C24.418 18.1471 25.5626 19.2917 26.9805 19.2917ZM15.0221 19.2917C16.4401 19.2917 17.5846 18.1471 17.5846 16.7292C17.5846 15.3113 16.4401 14.1667 15.0221 14.1667C13.6042 14.1667 12.4596 15.3113 12.4596 16.7292C12.4596 18.1471 13.6042 19.2917 15.0221 19.2917ZM21.0013 24.4167C17.0209 24.4167 13.6384 26.9109 12.2717 30.3959H29.7309C28.3642 26.9109 24.9817 24.4167 21.0013 24.4167Z" fill="black"/>
</g>
<defs>
<clipPath id="clip0_3471_19669">
<rect width="41" height="41" fill="white" transform="translate(0.5 0.5)"/>
</clipPath>
</defs>
</svg>
