<svg width="41" height="42" viewBox="0 0 41 42" fill="none" xmlns="http://www.w3.org/2000/svg">
<g clip-path="url(#clip0_3471_19401)">
<path d="M20.4842 3.91669C11.0542 3.91669 3.41797 11.57 3.41797 21C3.41797 30.43 11.0542 38.0834 20.4842 38.0834C29.9313 38.0834 37.5846 30.43 37.5846 21C37.5846 11.57 29.9313 3.91669 20.4842 3.91669ZM20.5013 34.6667C12.9505 34.6667 6.83464 28.5509 6.83464 21C6.83464 13.4492 12.9505 7.33335 20.5013 7.33335C28.0521 7.33335 34.168 13.4492 34.168 21C34.168 28.5509 28.0521 34.6667 20.5013 34.6667ZM26.4805 19.2917C27.8984 19.2917 29.043 18.1471 29.043 16.7292C29.043 15.3113 27.8984 14.1667 26.4805 14.1667C25.0626 14.1667 23.918 15.3113 23.918 16.7292C23.918 18.1471 25.0626 19.2917 26.4805 19.2917ZM14.5221 19.2917C15.9401 19.2917 17.0846 18.1471 17.0846 16.7292C17.0846 15.3113 15.9401 14.1667 14.5221 14.1667C13.1042 14.1667 11.9596 15.3113 11.9596 16.7292C11.9596 18.1471 13.1042 19.2917 14.5221 19.2917ZM20.5013 30.3959C24.4817 30.3959 27.8642 27.9017 29.2309 24.4167H11.7717C13.1384 27.9017 16.5209 30.3959 20.5013 30.3959Z" fill="black"/>
</g>
<defs>
<clipPath id="clip0_3471_19401">
<rect width="41" height="41" fill="white" transform="translate(0 0.5)"/>
</clipPath>
</defs>
</svg>
